# Blender v2.82 (sub 7) OBJ File: 'suelo.blend'
# www.blender.org
mtllib suelo.mtl
o losa_normal_Cube
v 1.000000 0.000000 -1.000000
v 1.000000 -0.500000 -1.000000
v 1.000000 0.000000 1.000000
v 1.000000 -0.500000 1.000000
v -1.000000 0.000000 -1.000000
v -1.000000 -0.500000 -1.000000
v -1.000000 0.000000 1.000000
v -1.000000 -0.500000 1.000000
v 0.960008 0.021498 0.960008
v -0.960008 0.021498 0.960008
v 0.960008 0.021498 -0.960008
v -0.960008 0.021498 -0.960008
vt 0.030909 0.003187
vt 0.970629 0.003187
vt 0.951838 0.047747
vt 0.049700 0.047747
vt 0.000198 0.999802
vt 0.000198 0.672842
vt 0.327158 0.672842
vt 0.327158 0.999802
vt 0.327158 0.672446
vt 0.000198 0.672446
vt 0.000198 0.345486
vt 0.327158 0.345486
vt 0.021916 0.978084
vt 0.021916 0.039848
vt 0.960152 0.039848
vt 0.960152 0.978084
vt 0.654910 0.672446
vt 0.654910 0.345486
vt 0.981870 0.345486
vt 0.981870 0.672446
vt 0.345486 0.000198
vt 0.672446 0.000198
vt 0.672446 0.327158
vt 0.345486 0.327158
vt 0.049700 0.949885
vt 0.951838 0.949885
vt 0.970629 0.994445
vt 0.030909 0.994445
vt 0.005140 0.968676
vt 0.005140 0.028956
vt 0.996398 0.028956
vt 0.996398 0.968676
vn -0.6232 0.4723 -0.6232
vn -0.6232 0.4723 0.6232
vn -0.1867 0.9645 0.1867
vn -0.1867 0.9645 -0.1867
vn 0.5773 -0.5773 0.5773
vn 0.6232 0.4723 0.6232
vn -0.5773 -0.5773 0.5773
vn -0.5773 -0.5773 -0.5773
vn 0.5773 -0.5773 -0.5773
vn 0.6232 0.4723 -0.6232
vn 0.1867 0.9645 -0.1867
vn 0.1867 0.9645 0.1867
g losa_normal_Cube_losa_normal
usemtl losa_normal
s 1
f 5/1/1 7/2/2 10/3/3 12/4/4
f 4/5/5 3/6/6 7/7/2 8/8/7
f 8/9/7 7/10/2 5/11/1 6/12/8
f 6/13/8 2/14/9 4/15/5 8/16/7
f 2/17/9 1/18/10 3/19/6 4/20/5
f 6/21/8 5/22/1 1/23/10 2/24/9
f 11/25/11 12/4/4 10/3/3 9/26/12
f 3/27/6 1/28/10 11/25/11 9/26/12
f 1/29/10 5/30/1 12/4/4 11/25/11
f 7/31/2 3/32/6 9/26/12 10/3/3
